# xmcd
#
# Track frame offsets: 
#        150
#        18094
#        40005
#        56780
#        79661
#        104921
#        117269
#        137640
#        158968
#        177621
#        197831
#        215644
#        232967
#
# Disc length: 3326 seconds
#
# Revision: 0
# Processed by: cddbd v1.5.1PL0 Copyright (c) Steve Scherf et al.
# Submitted via: ExactAudioCopy v0.90b4
#
DISCID=b70cfc0d
DTITLE=Denny Freeman - Twang Bang
DYEAR=1992
DGENRE=Blues
TTITLE0=Drive
TTITLE1=Twang Bang
TTITLE2=Chrometone
TTITLE3=Melancholy Valentine
TTITLE4=Clem's Dilemma
TTITLE5=Rocket Science
TTITLE6=Cream, No Sugar
TTITLE7=Babydoll
TTITLE8=Funkbone
TTITLE9=The Hook
TTITLE10=Jimijam
TTITLE11=Voodoo Blue
TTITLE12=Jimmy Reed Again
EXTD=
EXTT0=
EXTT1=
EXTT2=
EXTT3=
EXTT4=
EXTT5=
EXTT6=
EXTT7=
EXTT8=
EXTT9=
EXTT10=
EXTT11=
EXTT12=
PLAYORDER=
